<svg xmlns="http://www.w3.org/2000/svg" viewBox="0 0 960 520" fill="none">
  <defs>
    <linearGradient id="paper" x1="0" y1="0" x2="960" y2="520" gradientUnits="userSpaceOnUse">
      <stop stop-color="#fffaf0"/>
      <stop offset="1" stop-color="#f1e4d4"/>
    </linearGradient>
    <radialGradient id="eye" cx="0" cy="0" r="1" gradientUnits="userSpaceOnUse" gradientTransform="translate(0 0) scale(38)">
      <stop stop-color="#fffdf7"/>
      <stop offset="1" stop-color="#efe3d7"/>
    </radialGradient>
    <filter id="shadow" x="-20%" y="-20%" width="140%" height="145%" color-interpolation-filters="sRGB">
      <feDropShadow dx="0" dy="14" stdDeviation="10" flood-color="#1e130d" flood-opacity="0.18"/>
    </filter>
  </defs>
  <rect width="960" height="520" rx="34" fill="url(#paper)"/>
  <path d="M78 72H882M78 262H882M78 454H882" stroke="#2a1810" stroke-opacity="0.1"/>
  <g fill="#2a1810" font-family="Aptos, sans-serif" font-size="18" font-weight="900" letter-spacing="0.12em">
    <text x="98" y="50">HOME / OPEN QUEST</text>
    <text x="352" y="50">UPLOAD / GUARD</text>
    <text x="612" y="50">QUIZ / THINKING</text>
    <text x="104" y="244">RESULTS / POINT</text>
    <text x="390" y="244">LAB / POLISH</text>
    <text x="638" y="244">JOB / SCOUT</text>
  </g>

  <g transform="translate(190 150)" filter="url(#shadow)">
    <path d="M-72-30c-9-50 0-86 19-93 14 28 34 47 59 52 20-5 39-5 59 0 25-5 45-24 59-52 19 8 28 44 18 94 18 21 26 49 23 77-6 61-61 100-135 97-74-3-122-46-120-109 1-27 10-49 28-66Z" fill="#050505"/>
    <ellipse cx="-28" cy="0" rx="32" ry="35" fill="url(#eye)"/>
    <ellipse cx="58" cy="-2" rx="32" ry="35" fill="url(#eye)"/>
    <ellipse cx="-18" cy="2" rx="17" ry="19" fill="#050505"/>
    <ellipse cx="49" cy="-2" rx="17" ry="19" fill="#050505"/>
    <path d="M15 48c10 14 25 14 36 0" stroke="#fff8ea" stroke-width="7" stroke-linecap="round"/>
    <path d="M-64 55c-25 3-47 11-66 25M122 53c25 3 48 11 67 26" stroke="#050505" stroke-width="7" stroke-linecap="round"/>
    <path d="M-20 111c30 23 74 20 99-8" stroke="#f3b65c" stroke-width="9" stroke-linecap="round"/>
  </g>

  <g transform="translate(460 150)" filter="url(#shadow)">
    <path d="M-62-20c-9-45-1-78 17-86 12 26 31 43 55 49 17-4 35-4 53 0 25-6 43-23 56-50 18 9 25 41 16 86 17 20 25 48 21 76-7 60-58 95-127 91-68-4-111-44-109-103 1-27 11-47 18-63Z" fill="#050505"/>
    <ellipse cx="-23" cy="8" rx="28" ry="31" fill="url(#eye)"/>
    <ellipse cx="50" cy="6" rx="28" ry="31" fill="url(#eye)"/>
    <ellipse cx="-14" cy="8" rx="15" ry="17" fill="#050505"/>
    <ellipse cx="42" cy="6" rx="15" ry="17" fill="#050505"/>
    <rect x="-102" y="75" width="170" height="34" rx="17" fill="#fff8ea" stroke="#050505" stroke-width="6"/>
    <circle cx="-62" cy="92" r="5" fill="#050505"/>
    <circle cx="-41" cy="92" r="5" fill="#050505"/>
    <path d="M-78 58c-22 5-41 14-58 29M111 56c22 5 41 14 58 29" stroke="#050505" stroke-width="7" stroke-linecap="round"/>
  </g>

  <g transform="translate(720 150)" filter="url(#shadow)">
    <path d="M-70-26c-10-46-1-80 18-88 12 27 31 45 56 50 17-4 35-4 52 0 25-5 44-23 56-50 18 8 27 42 17 88 18 21 26 49 22 77-8 58-57 92-123 88-67-4-110-44-108-101 1-26 10-47 10-64Z" fill="#050505"/>
    <ellipse cx="-29" cy="-1" rx="30" ry="32" fill="url(#eye)"/>
    <ellipse cx="49" cy="-2" rx="30" ry="32" fill="url(#eye)"/>
    <ellipse cx="-20" cy="-2" rx="16" ry="18" fill="#050505"/>
    <ellipse cx="41" cy="-3" rx="16" ry="18" fill="#050505"/>
    <path d="M14 42c-9 5-18 5-27 0M39 42c9 5 18 5 27 0" stroke="#fff8ea" stroke-width="6" stroke-linecap="round"/>
    <path d="M-57 82c16-18 42-17 55 0M31 82c16-18 42-17 55 0" stroke="#f3b65c" stroke-width="8" stroke-linecap="round"/>
  </g>

  <g transform="translate(190 350)" filter="url(#shadow)">
    <path d="M-98 6c-10-48 1-88 20-95 13 28 35 48 63 55 22-7 47-7 71 0 29-7 50-26 65-55 19 8 29 46 18 95 23 22 33 51 30 82-7 66-72 102-154 96-80-6-130-49-127-107 2-30 15-55 14-71Z" fill="#050505"/>
    <ellipse cx="-40" cy="27" rx="35" ry="38" fill="url(#eye)"/>
    <ellipse cx="60" cy="24" rx="35" ry="38" fill="url(#eye)"/>
    <ellipse cx="-28" cy="27" rx="19" ry="21" fill="#050505"/>
    <ellipse cx="49" cy="24" rx="19" ry="21" fill="#050505"/>
    <path d="M-116 65c-26 2-50 9-72 22M141 63c26 2 50 9 72 22" stroke="#050505" stroke-width="8" stroke-linecap="round"/>
    <path d="M65 121c45 16 87-1 109-42" stroke="#050505" stroke-width="16" stroke-linecap="round"/>
  </g>

  <g transform="translate(470 350)" filter="url(#shadow)">
    <path d="M-72-18c-9-44 0-76 17-84 12 25 31 41 55 46 17-4 35-4 53 0 24-5 42-21 55-46 17 8 25 40 16 84 17 19 24 45 21 72-7 56-58 90-124 86-66-4-109-41-108-96 1-25 9-45 15-62Z" fill="#050505"/>
    <ellipse cx="-25" cy="9" rx="28" ry="30" fill="url(#eye)"/>
    <ellipse cx="47" cy="7" rx="28" ry="30" fill="url(#eye)"/>
    <ellipse cx="-18" cy="9" rx="14" ry="16" fill="#050505"/>
    <ellipse cx="40" cy="7" rx="14" ry="16" fill="#050505"/>
    <path d="M-8 51c13 10 31 10 44 0" stroke="#fff8ea" stroke-width="7" stroke-linecap="round"/>
    <path d="M-100 84c35 24 110 25 152 1" stroke="#f3b65c" stroke-width="10" stroke-linecap="round"/>
    <path d="M-84 66c-22 5-42 14-59 28M105 66c22 5 42 14 59 28" stroke="#050505" stroke-width="7" stroke-linecap="round"/>
  </g>

  <g transform="translate(730 350)" filter="url(#shadow)">
    <path d="M-84-10c-10-48 0-84 19-91 13 28 34 47 61 52 20-5 42-5 63 0 27-6 48-25 62-52 19 8 28 44 18 91 20 20 29 47 27 76-5 63-61 99-136 95-75-4-123-43-124-101 0-28 9-48 10-70Z" fill="#050505"/>
    <ellipse cx="-34" cy="18" rx="31" ry="34" fill="url(#eye)"/>
    <ellipse cx="55" cy="17" rx="31" ry="34" fill="url(#eye)"/>
    <ellipse cx="-23" cy="18" rx="16" ry="18" fill="#050505"/>
    <ellipse cx="47" cy="17" rx="16" ry="18" fill="#050505"/>
    <path d="M-26 67c24-10 54-10 79 0" stroke="#fff8ea" stroke-width="7" stroke-linecap="round"/>
    <path d="M-88 58c-24-5-47-4-68 4M129 58c24-5 47-4 68 4" stroke="#050505" stroke-width="7" stroke-linecap="round"/>
  </g>
</svg>
